<?xml version="1.0" encoding="utf-8"?>
<!-- Generator: Adobe Illustrator 26.0.1, SVG Export Plug-In . SVG Version: 6.00 Build 0)  -->
<svg version="1.1" id="Layer_1" xmlns="http://www.w3.org/2000/svg" xmlns:xlink="http://www.w3.org/1999/xlink" x="0px" y="0px"
	 viewBox="0 0 241.5 88.6" style="enable-background:new 0 0 241.5 88.6;" xml:space="preserve">
<style type="text/css">
	.st0{clip-path:url(#SVGID_00000108998861996148794660000006228723445449623947_);}
	.st1{fill:none;stroke:#000000;stroke-miterlimit:10;}
	.st2{fill:#464646;}
	.st3{fill:none;stroke:#000000;stroke-width:1.3702;stroke-linejoin:round;stroke-miterlimit:10;stroke-dasharray:4,13;}
	.st4{fill:#136C37;}
	.st5{fill:#1E9E49;}
	.st6{fill:none;stroke:#ED1C24;stroke-width:2;stroke-miterlimit:10;}
	.st7{fill:#ED1C24;}
	.st8{fill:#FBC734;}
	.st9{fill:url(#SVGID_00000057145694966084314200000005041850592679739289_);}
	.st10{fill:url(#SVGID_00000093179159234845246290000009570568062982050711_);}
	.st11{fill:url(#SVGID_00000167374566293311338900000001687044136960320688_);}
	.st12{fill:url(#SVGID_00000128481051739516135580000004418929841949246117_);}
	.st13{fill:#9CD6F5;}
</style>
<g>
	<g>
		<defs>
			<circle id="SVGID_1_" cx="-106.3" cy="-280" r="34.8"/>
		</defs>
		<clipPath id="SVGID_00000135678727995168422660000000069191119062807441_">
			<use xlink:href="#SVGID_1_"  style="overflow:visible;"/>
		</clipPath>
		<g style="clip-path:url(#SVGID_00000135678727995168422660000000069191119062807441_);">
			
				<image style="overflow:visible;enable-background:new    ;" width="203" height="203" xlink:href="9F1DF9B8.jpeg"  transform="matrix(0.3555 0 0 0.3555 -142.4057 -316.0514)">
			</image>
		</g>
	</g>
	<g>
		<defs>
			<circle id="SVGID_00000138562148007058790990000004128114183159434383_" cx="-106.3" cy="-280" r="34.8"/>
		</defs>
		<clipPath id="SVGID_00000155863751291311952130000004767313471226602900_">
			<use xlink:href="#SVGID_00000138562148007058790990000004128114183159434383_"  style="overflow:visible;"/>
		</clipPath>
	</g>
	<g>
		<circle id="XMLID_00000079477825123991067520000013006940005971166102_" class="st1" cx="-106.3" cy="-280" r="34.8"/>
	</g>
</g>
<g>
	<path class="st2" d="M-80.2-320.7c0.3,0.5,0.5,1,0.7,1.4c-0.3,0.2-0.5,0.4-0.8,0.6c0-0.4-0.4-0.5-0.6-0.8c-0.3-0.4-0.7,0.1-1,0
		c0.1-0.5-0.4-0.9-1.1-0.8c0.1-0.1,0.1-0.2,0.2-0.3c-0.5-0.6-0.5-0.6-1.4-0.4c0-0.1,0.1-0.2,0.1-0.3c-0.5-0.2-1-0.5-1.6-0.3
		c-0.3,0.1-0.6,0-0.9,0.1c-0.4,0.1-0.9,0.1-1.3,0.3c-1.2,0.4-2.4,0.6-3.7,0.6c-0.2,0-0.4,0-0.7,0.1c0.1,0.3,0.2,0.5,0.4,0.8
		c-0.3,0.2-0.6,0.3-0.9,0c-0.7-0.6-1.6-0.9-2.5-0.8c-0.1,0-0.2,0-0.4,0c-0.3,0-0.3-0.2-0.2-0.4c0.1-0.1,0.2-0.2,0.4-0.4
		c-1-0.5-1.9-1.1-2.9-1.6c0,0,0-0.1,0-0.1c0.3,0,0.6,0,0.8,0c0.9,0.3,1.8,0.6,2.8,1c0-0.4-0.1-0.6-0.1-0.9c-0.1-0.6-0.1-1.1-0.2-1.7
		c0-0.2,0.1-0.4,0.3-0.4c0.6-0.3,0.6-0.3,1,0.2c0.4,0.5,0.8,1,1.2,1.6c0.2,0.3,0.4,0.4,0.8,0.2c0.8-0.3,1.7-0.6,2.6-0.9
		c0.1,0,0.2-0.1,0.4-0.2c-0.3-0.3-0.6-0.5-1-0.7c-0.4-0.2-0.8-0.6-1.3-0.2c0.1-0.2,0.1-0.3,0.2-0.4c-0.6-0.3-1.3-0.7-1.9-1
		c-0.1,0-0.2,0-0.3,0c-0.1,0-0.2,0.1-0.4,0.1c0.1-0.2,0.1-0.2,0.2-0.4c-0.2-0.1-0.5-0.3-0.8-0.5c0.1-0.1,0.2-0.2,0.3-0.3
		c-1-0.3-1.7-1.1-2.7-1.3c0,0,0-0.2,0-0.3c0.7,0,1.4,0.1,2.1,0.4c2.5,1,5.1,2,7.6,3c0.2,0.1,0.5,0,0.8,0c0.4-0.1,0.8-0.2,1.2-0.3
		c0.3-0.1,0.6,0,0.8,0.4c0.8-0.3,1.5-0.6,2.3-0.8c1.4-0.4,2.8-0.9,4.2-1.3c0.7-0.2,1.4-0.2,2,0.3c0.2,0.1,0.4,0.1,0.6,0.2
		c0.6,0.2,0.7,0.6,0.3,1c-0.3,0.3-0.7,0.7-1.2,0.9c-1.3,0.6-2.7,1-4.1,1.6c-0.5,0.2-1,0.4-1.5,0.7c0.2,0.3,0.3,0.6,0.4,0.8
		c0.1,0.1,0.2,0.1,0.3,0.1c0.4,0,0.7-0.1,1.1-0.2c0.5-0.1,0.8,0,1,0.4c0.2,0.4,0,0.9-0.5,1C-79.5-321-79.8-320.9-80.2-320.7z"/>
</g>
<path class="st3" d="M-105.1-236.3c-25.6-2.2-44.8-22.9-42.8-46.3s24.4-40.5,50-38.3"/>
<g>
	<g>
		<path class="st4" d="M-122.3-238.4v-5.8h1.1v5.8H-122.3z M-121.8-238.4v-1h1.4c0.4,0,0.6-0.1,0.8-0.3s0.3-0.4,0.3-0.7v-1.7
			c0-0.3-0.1-0.6-0.3-0.7c-0.2-0.2-0.5-0.3-0.8-0.3h-1.4v-1h1.4c0.7,0,1.3,0.2,1.7,0.5c0.4,0.4,0.6,0.9,0.6,1.5v1.6
			c0,0.4-0.1,0.8-0.2,1.1s-0.4,0.6-0.8,0.7c-0.3,0.2-0.8,0.3-1.3,0.3L-121.8-238.4L-121.8-238.4z"/>
		<path class="st4" d="M-117-238.4v-5.8h1.1v5.8H-117z M-116.6-243.1v-1h3.5v1H-116.6z M-116.6-240.7v-1h3v1H-116.6z M-116.6-238.4
			v-1h3.5v1H-116.6z"/>
		<path class="st4" d="M-110.8-238.4l-1.9-5.8h1.1l1.2,3.8l1.2-3.8h1.1l-1.9,5.8H-110.8z"/>
		<path class="st4" d="M-107.4-238.4v-5.8h1.1v5.8H-107.4z M-106.9-238.4v-1h1.8c0.2,0,0.4-0.1,0.6-0.2s0.2-0.3,0.2-0.5v0
			c0-0.2-0.1-0.4-0.2-0.5s-0.3-0.2-0.6-0.2h-1.8v-1h1.8c0.2,0,0.4-0.1,0.5-0.2c0.1-0.1,0.2-0.3,0.2-0.5c0-0.2-0.1-0.3-0.2-0.4
			s-0.3-0.1-0.5-0.1h-1.8v-1h1.9c0.6,0,1,0.1,1.3,0.4s0.5,0.7,0.5,1.1c0,0.3-0.1,0.6-0.3,0.8s-0.5,0.4-0.8,0.4
			c0.4,0.1,0.7,0.2,0.9,0.4s0.3,0.6,0.3,0.9v0c0,0.5-0.2,0.9-0.5,1.2c-0.3,0.3-0.7,0.4-1.3,0.4L-106.9-238.4L-106.9-238.4z"/>
		<path class="st4" d="M-102.1-238.4v-5.8h1.1v5.8H-102.1z M-101.6-240.7v-1h3.3v1H-101.6z M-99-238.4v-5.8h1.1v5.8H-99z"/>
		<path class="st4" d="M-94.7-238.3c-0.4,0-0.8-0.1-1.1-0.3s-0.6-0.4-0.7-0.7c-0.2-0.3-0.3-0.7-0.3-1.1v-1.6c0-0.4,0.1-0.8,0.3-1.1
			c0.2-0.3,0.4-0.6,0.7-0.7s0.7-0.3,1.1-0.3s0.8,0.1,1.1,0.3c0.3,0.2,0.6,0.4,0.7,0.7c0.2,0.3,0.3,0.7,0.3,1.1v1.6
			c0,0.4-0.1,0.8-0.3,1.1c-0.2,0.3-0.4,0.6-0.7,0.7C-93.9-238.4-94.2-238.3-94.7-238.3z M-94.7-239.4c0.3,0,0.5-0.1,0.7-0.3
			c0.2-0.2,0.3-0.4,0.3-0.7v-1.7c0-0.3-0.1-0.6-0.3-0.7s-0.4-0.3-0.7-0.3c-0.3,0-0.5,0.1-0.7,0.3c-0.2,0.2-0.3,0.4-0.3,0.7v1.7
			c0,0.3,0.1,0.6,0.3,0.7S-95-239.4-94.7-239.4z"/>
		<path class="st4" d="M-89.4-238.3c-0.4,0-0.8-0.1-1.1-0.3s-0.6-0.4-0.7-0.7c-0.2-0.3-0.3-0.7-0.3-1.1v-1.6c0-0.4,0.1-0.8,0.3-1.1
			c0.2-0.3,0.4-0.6,0.7-0.7s0.7-0.3,1.1-0.3s0.8,0.1,1.1,0.3c0.3,0.2,0.6,0.4,0.7,0.7c0.2,0.3,0.3,0.7,0.3,1.1v1.6
			c0,0.4-0.1,0.8-0.3,1.1c-0.2,0.3-0.4,0.6-0.7,0.7C-88.6-238.4-89-238.3-89.4-238.3z M-89.4-239.4c0.3,0,0.5-0.1,0.7-0.3
			c0.2-0.2,0.3-0.4,0.3-0.7v-1.7c0-0.3-0.1-0.6-0.3-0.7s-0.4-0.3-0.7-0.3c-0.3,0-0.5,0.1-0.7,0.3c-0.2,0.2-0.3,0.4-0.3,0.7v1.7
			c0,0.3,0.1,0.6,0.3,0.7S-89.7-239.4-89.4-239.4z"/>
		<path class="st4" d="M-83.7-240.3l1.1-3.9h1.4v5.8h-1v-4.5l0,0.2l-1.1,3.6h-1l-1.1-3.5l0-0.3v4.5h-1v-5.8h1.4L-83.7-240.3z"/>
		<path class="st4" d="M-78.8-244.1v5.8h-1.1v-5.8H-78.8z"/>
	</g>
</g>
<g>
	<g>
		<g>
			<path class="st4" d="M-75.4-244v-1h4.2v1H-75.4z M-73.9-239.3v-5.3h1.1v5.3H-73.9z"/>
			<path class="st4" d="M-68.8-239.3c-0.4,0-0.8-0.1-1.1-0.3s-0.6-0.4-0.7-0.7c-0.2-0.3-0.3-0.7-0.3-1.1v-1.6c0-0.4,0.1-0.8,0.3-1.1
				c0.2-0.3,0.4-0.6,0.7-0.7s0.7-0.3,1.1-0.3s0.8,0.1,1.1,0.3c0.3,0.2,0.6,0.4,0.7,0.7c0.2,0.3,0.3,0.7,0.3,1.1v1.6
				c0,0.4-0.1,0.8-0.3,1.1c-0.2,0.3-0.4,0.6-0.7,0.7C-68-239.4-68.3-239.3-68.8-239.3z M-68.8-240.3c0.3,0,0.5-0.1,0.7-0.3
				c0.2-0.2,0.3-0.4,0.3-0.7v-1.7c0-0.3-0.1-0.6-0.3-0.7s-0.4-0.3-0.7-0.3c-0.3,0-0.5,0.1-0.7,0.3c-0.2,0.2-0.3,0.4-0.3,0.7v1.7
				c0,0.3,0.1,0.6,0.3,0.7C-69.3-240.4-69.1-240.3-68.8-240.3z"/>
			<path class="st4" d="M-63.5-239.3c-0.7,0-1.2-0.2-1.6-0.6s-0.6-0.9-0.6-1.6v-3.7h1.1v3.7c0,0.3,0.1,0.6,0.3,0.8
				c0.2,0.2,0.4,0.3,0.8,0.3c0.3,0,0.6-0.1,0.8-0.3c0.2-0.2,0.3-0.4,0.3-0.8v-3.7h1.1v3.7c0,0.7-0.2,1.2-0.5,1.6
				C-62.3-239.4-62.8-239.3-63.5-239.3z"/>
			<path class="st4" d="M-60.2-239.3v-5.8h1.1v5.8H-60.2z M-59.8-241.6v-1h2c0.2,0,0.3-0.1,0.4-0.2s0.2-0.3,0.2-0.5
				c0-0.2,0-0.4-0.2-0.5s-0.2-0.2-0.4-0.2h-2v-1h2.1c0.3,0,0.6,0.1,0.8,0.2s0.4,0.3,0.6,0.6c0.1,0.3,0.2,0.6,0.2,0.9
				s-0.1,0.6-0.2,0.9c-0.1,0.3-0.3,0.5-0.6,0.6s-0.5,0.2-0.8,0.2L-59.8-241.6L-59.8-241.6z M-57.2-239.3l-1.4-2.5l1.2-0.2l1.5,2.7
				L-57.2-239.3L-57.2-239.3z"/>
			<path class="st4" d="M-53.1-239.3c-0.3,0-0.5,0-0.8-0.1c-0.3-0.1-0.5-0.1-0.7-0.2c-0.2-0.1-0.4-0.2-0.6-0.4l0.5-0.9
				c0.2,0.2,0.5,0.3,0.8,0.4c0.3,0.1,0.6,0.1,0.9,0.1c0.3,0,0.6-0.1,0.8-0.2s0.3-0.3,0.3-0.5l0,0c0-0.2,0-0.3-0.2-0.4
				c-0.1-0.1-0.2-0.1-0.4-0.2c-0.2,0-0.3-0.1-0.5-0.1c-0.2,0-0.5-0.1-0.7-0.1s-0.4-0.1-0.6-0.2s-0.3-0.3-0.5-0.5
				c-0.1-0.2-0.2-0.5-0.2-0.8l0,0c0-0.6,0.2-1,0.5-1.3c0.4-0.3,0.9-0.5,1.6-0.5c0.3,0,0.6,0.1,1,0.2c0.3,0.1,0.6,0.2,0.9,0.4
				l-0.5,0.9c-0.2-0.2-0.5-0.3-0.7-0.4s-0.5-0.1-0.7-0.1c-0.3,0-0.6,0.1-0.8,0.2s-0.3,0.3-0.3,0.5l0,0c0,0.2,0,0.3,0.2,0.4
				c0.1,0.1,0.2,0.2,0.4,0.2c0.2,0.1,0.4,0.1,0.6,0.1c0.2,0,0.4,0.1,0.7,0.2c0.2,0.1,0.4,0.1,0.6,0.3c0.2,0.1,0.3,0.3,0.4,0.5
				c0.1,0.2,0.2,0.5,0.2,0.8v0c0,0.6-0.2,1-0.6,1.3S-52.4-239.3-53.1-239.3z"/>
		</g>
	</g>
</g>
<path class="st5" d="M-10.9-223.1c3-0.5,6.7-0.8,10.6-0.8c7.2,0,12.3,1.7,15.7,4.8c3.4,3.2,5.4,7.6,5.4,13.9c0,6.3-2,11.5-5.6,15
	c-3.6,3.6-9.6,5.6-17.1,5.6c-3.6,0-6.6-0.2-9.1-0.5L-10.9-223.1L-10.9-223.1z M-5.9-188.8c1.3,0.2,3.1,0.3,5.1,0.3
	c10.7,0,16.5-6,16.5-16.4c0.1-9.1-5.1-14.9-15.7-14.9c-2.6,0-4.5,0.2-5.9,0.5C-5.9-219.4-5.9-188.8-5.9-188.8z"/>
<path class="st5" d="M-19.1-101c3-0.5,6.7-0.8,10.6-0.8c7.2,0,12.3,1.7,15.7,4.8c3.4,3.2,5.4,7.6,5.4,13.9c0,6.3-1.9,11.5-5.6,15
	c-3.6,3.6-9.6,5.6-17.1,5.6c-3.6,0-6.5-0.2-9.1-0.5L-19.1-101L-19.1-101z M-14.1-66.8c1.3,0.2,3.1,0.3,5.1,0.3
	c10.7,0,16.5-6,16.5-16.4C7.5-92,2.3-97.8-8.2-97.8c-2.6,0-4.5,0.2-5.9,0.5L-14.1-66.8L-14.1-66.8z"/>
<path class="st5" d="M1.9-199.6c0.1,4.3,2.8,6.1,6,6.1c2.3,0,3.6-0.4,4.8-0.9l0.5,2.3c-1.1,0.5-3,1.1-5.8,1.1
	c-5.4,0-8.6-3.5-8.6-8.8s3.1-9.4,8.2-9.4c5.7,0,7.2,5,7.2,8.2c0,0.6-0.1,1.1-0.1,1.5L1.9-199.6L1.9-199.6z M11.1-201.8
	c0-2-0.8-5.1-4.4-5.1c-3.2,0-4.6,2.9-4.9,5.1H11.1z"/>
<path class="st5" d="M16.3-69.3c0.8,4.2,3.8,5.5,7,4.9c2.2-0.4,3.5-1,4.6-1.7l0.9,2.1c-1,0.7-2.8,1.6-5.5,2.1c-5.3,1-9.1-2-10-7.1
	c-0.9-5.2,1.4-9.8,6.4-10.7c5.6-1,8,3.6,8.5,6.8c0.1,0.6,0.1,1.2,0.2,1.5L16.3-69.3z M25.1-73.2c-0.3-2-1.7-4.9-5.2-4.3
	c-3.1,0.6-4,3.7-3.9,5.9L25.1-73.2z"/>
<path class="st5" d="M26.9-201.9l3.4,9.8c0.6,1.6,1,3,1.4,4.5h0.1c0.4-1.4,0.9-2.9,1.5-4.5l3.4-9.8H40l-6.8,17.4h-3l-6.6-17.4H26.9z
	"/>
<path class="st5" d="M57.2,42.4l3.4,9.8c0.6,1.6,1,3,1.4,4.5h0.1c0.4-1.4,0.9-2.9,1.5-4.5l3.4-9.8h3.3l-6.8,17.4h-3l-6.6-17.4H57.2z
	"/>
<path class="st5" d="M35.2-79.4l3.4,9.8c0.6,1.6,1,3,1.4,4.5h0.1c0.4-1.4,0.9-2.9,1.5-4.5l3.4-9.8c4.5-9.7,7.8-20.4,13.3-29.1
	C52.7-93,47.1-77.5,41.4-62h-3l-6.6-17.4C31.8-79.4,35.2-79.4,35.2-79.4z"/>
<path class="st5" d="M42.7-184.9c0.1-1.2,0.1-2.9,0.1-4.5v-21.1H46v10.9H46c1.1-1.9,3.1-3.2,5.9-3.2c4.3,0,7.4,3.6,7.3,8.9
	c0,6.2-3.9,9.3-7.8,9.3c-2.5,0-4.5-1-5.8-3.3h-0.1l-0.1,2.9L42.7-184.9L42.7-184.9z M46-191.9c0,0.4,0.1,0.8,0.1,1.1
	c0.6,2.2,2.5,3.7,4.8,3.7c3.3,0,5.3-2.7,5.3-6.7c0-3.5-1.8-6.5-5.2-6.5c-2.2,0-4.2,1.5-4.8,3.9c-0.1,0.4-0.2,0.8-0.2,1.3V-191.9z"/>
<path class="st5" d="M62.9-210.1H66v10.9h0.1c0.5-0.9,1.3-1.7,2.3-2.2c0.9-0.5,2.1-0.9,3.2-0.9c2.3,0,6.1,1.4,6.1,7.4v10.4h-3.2v-10
	c0-2.8-1-5.2-4-5.2c-2.1,0-3.7,1.4-4.2,3.2c-0.2,0.4-0.2,0.9-0.2,1.5v10.5h-3.2L62.9-210.1L62.9-210.1z"/>
<path class="st5" d="M51.6-62.4c0.1-1.2,0.1-3,0.1-4.5v-21.1h3.1V-77h0.1c1.1-1.9,3.1-3.2,5.9-3.2c4.3,0,7.4,3.6,7.3,8.9
	c0,6.2-3.9,9.3-7.8,9.3c-2.5,0-4.5-1-5.8-3.3h-0.1l-0.1,2.9L51.6-62.4L51.6-62.4z M54.8-69.4c0,0.4,0.1,0.8,0.1,1.2
	c0.6,2.2,2.5,3.7,4.8,3.7c3.3,0,5.3-2.7,5.3-6.7c0-3.5-1.8-6.5-5.2-6.5c-2.2,0-4.2,1.5-4.8,3.9c-0.1,0.4-0.2,0.8-0.2,1.3V-69.4z"/>
<path class="st5" d="M70.3-87.7h3.2v10.9h0.1c0.5-0.9,1.3-1.7,2.3-2.2c0.9-0.5,2.1-0.9,3.2-0.9c2.3,0,6.1,1.4,6.1,7.4v10.4h-3.2v-10
	c0-2.8-1-5.2-4-5.2c-2.1,0-3.7,1.4-4.2,3.2c-0.2,0.4-0.2,0.9-0.2,1.5v10.5h-3.2L70.3-87.7L70.3-87.7z"/>
<path class="st5" d="M105.3-70.9c0,6.4-4.5,9.2-8.7,9.2c-4.7,0-8.3-3.5-8.3-9c0-5.8,3.8-9.2,8.6-9.2
	C101.9-79.8,105.3-76.2,105.3-70.9z M91.5-70.7c0,3.8,2.2,6.7,5.3,6.7c3,0,5.3-2.8,5.3-6.8c0-2.9-1.5-6.7-5.2-6.7
	C93.1-77.4,91.5-74,91.5-70.7z"/>
<path class="st5" d="M125.5-71.2c0,6.4-4.5,9.2-8.7,9.2c-4.7,0-8.3-3.5-8.3-9c0-5.8,3.8-9.2,8.6-9.2
	C122.1-80.2,125.5-76.6,125.5-71.2z M111.7-71.1c0,3.8,2.2,6.7,5.3,6.7c3,0,5.3-2.8,5.3-6.8c0-2.9-1.5-6.7-5.2-6.7
	C113.3-77.8,111.7-74.4,111.7-71.1z"/>
<path class="st5" d="M123.1-197.2c0-1.8,0-3.3-0.1-4.7h2.8l0.1,2.8h0.1c1-1.7,2.6-3.2,5.5-3.2c2.4,0,4.2,1.4,4.9,3.5h0.1
	c0.5-1,1.2-1.7,1.9-2.3c1-0.8,2.2-1.2,3.9-1.2c2.3,0,5.7,1.5,5.7,7.6v10.3h-3.1v-9.9c0-3.4-1.2-5.4-3.8-5.4c-1.8,0-3.2,1.3-3.7,2.9
	c-0.1,0.4-0.2,1-0.2,1.6v10.8H134V-195c0-2.8-1.2-4.8-3.6-4.8c-2,0-3.4,1.6-3.9,3.2c-0.2,0.5-0.2,1-0.2,1.6v10.5h-3.1L123.1-197.2
	L123.1-197.2z"/>
<path class="st5" d="M151.6-184.5v-17.4h3.2v17.4H151.6z"/>
<path d="M163.9-220.9h-12.4v-4.5h30.2v4.5h-12.5v36.4h-5.3L163.9-220.9L163.9-220.9z"/>
<path d="M172.2-56.3c0,2.8-1.9,4-3.7,4c-2,0-3.6-1.5-3.6-3.8c0-2.5,1.6-4,3.7-4C170.7-60.1,172.2-58.6,172.2-56.3z M166.2-56.2
	c0,1.6,0.9,2.9,2.3,2.9c1.3,0,2.3-1.2,2.3-2.9c0-1.3-0.6-2.9-2.2-2.9C166.9-59.1,166.2-57.6,166.2-56.2z"/>
<path d="M208-189.7c0,1.8,0,3.4,0.1,4.8h-2.8l-0.2-2.8H205c-0.8,1.4-2.7,3.2-5.8,3.2c-2.7,0-6-1.5-6-7.6v-10.2h3.2v9.6
	c0,3.3,1,5.5,3.9,5.5c2.1,0,3.6-1.5,4.2-2.9c0.2-0.5,0.3-1,0.3-1.6v-10.7h3.2V-189.7z"/>
<path d="M213.5-196.5c0-2.1,0-3.8-0.1-5.4h2.8l0.1,3.4h0.1c0.8-2.3,2.7-3.8,4.8-3.8c0.4,0,0.6,0,0.9,0.1v3c-0.3-0.1-0.6-0.1-1.1-0.1
	c-2.2,0-3.8,1.7-4.2,4.1c-0.1,0.4-0.1,0.9-0.1,1.5v9.3h-3.1V-196.5z"/>
<path d="M224.9-188.1c0.9,0.6,2.6,1.3,4.2,1.3c2.3,0,3.4-1.1,3.4-2.6c0-1.5-0.9-2.3-3.2-3.2c-3.1-1.1-4.6-2.8-4.6-4.9
	c0-2.8,2.3-5.1,6-5.1c1.8,0,3.3,0.5,4.3,1.1l-0.8,2.3c-0.7-0.4-1.9-1-3.6-1c-1.9,0-2.9,1.1-2.9,2.4c0,1.4,1,2.1,3.3,2.9
	c3,1.1,4.6,2.7,4.6,5.3c0,3.1-2.4,5.2-6.5,5.2c-1.9,0-3.7-0.5-4.9-1.2L224.9-188.1z"/>
<path class="st6" d="M97.1-191.8l-0.3,0.3l-6.9,6.9l-6.9-6.9l-0.3-0.3c-1.9-1.9-1.9-5,0-6.9l0,0c1.9-1.9,5-1.9,6.9,0l0.3,0.3
	l0.3-0.3c1.9-1.9,5-1.9,6.9,0l0,0C99.1-196.8,99.1-193.7,97.1-191.8z"/>
<path class="st6" d="M188.3-191.8l-0.3,0.3l-6.9,6.9l-6.9-6.9l-0.3-0.3c-1.9-1.9-1.9-5,0-6.9l0,0c1.9-1.9,5-1.9,6.9,0l0.3,0.3
	l0.3-0.3c1.9-1.9,5-1.9,6.9,0l0,0C190.2-196.8,190.2-193.7,188.3-191.8z"/>
<path d="M161.3-60.6h-3.4l-1.8-1h11.6l-1.4,1h-3.4v8.3h-1.5V-60.6z"/>
<path d="M179.4-54.6c0,0.8,0,1.5,0.1,2h-1.2l-0.1-1.2h0c-0.4,0.6-1.1,1.4-2.5,1.4c-1.2,0-2.6-0.7-2.6-3.3v-4.4h1.4v4.2
	c0,1.4,0.4,2.4,1.7,2.4c0.9,0,1.6-0.6,1.8-1.2c0.1-0.2,0.1-0.5,0.1-0.7v-4.6h1.4L179.4-54.6L179.4-54.6z"/>
<path d="M181.8-57.6c0-0.9,0-1.6-0.1-2.3h1.2l0.1,1.5h0.1c0.3-1,1.2-1.6,2.1-1.6c0.1,0,0.3,0,0.4,0v1.3c-0.1,0-0.3,0-0.5,0
	c-1,0-1.6,0.7-1.8,1.8c0,0.2-0.1,0.4-0.1,0.6v4h-1.4V-57.6z"/>
<path d="M186.7-53.9c0.4,0.3,1.1,0.5,1.8,0.5c1,0,1.4-0.5,1.4-1.1c0-0.7-0.4-1-1.4-1.4c-1.4-0.5-2-1.2-2-2.1c0-1.2,1-2.2,2.6-2.2
	c0.8,0,2.7-0.6,3.1-0.4l-1.6,1.8c-0.3-0.2-0.8-0.4-1.5-0.4c-0.8,0-1.2,0.5-1.2,1c0,0.6,0.4,0.9,1.4,1.3c1.3,0.5,2,1.2,2,2.3
	c0,1.3-1,2.2-2.8,2.2c-0.8,0-1.6-0.2-2.1-0.5L186.7-53.9z"/>
<path class="st6" d="M118-191.8l-0.3,0.3l-6.9,6.9l-6.9-6.9l-0.3-0.3c-1.9-1.9-1.9-5,0-6.9l0,0c1.9-1.9,5-1.9,6.9,0l0.3,0.3l0.3-0.3
	c1.9-1.9,5-1.9,6.9,0l0,0C119.9-196.8,119.9-193.7,118-191.8z"/>
<circle class="st7" cx="153.1" cy="-211.5" r="3.3"/>
<path class="st5" d="M128.3-75.2c0-1.8,0-3.3-0.1-4.7h2.8l0.1,2.8h0.1c1-1.7,2.6-3.2,5.5-3.2c2.4,0,4.2,1.4,4.9,3.5h0.1
	c0.5-1,1.2-1.7,1.9-2.3c1-0.8,2.2-1.2,3.9-1.2c2.3,0,5.7,1.5,5.7,7.6v10.3H150v-9.9c0-3.3-1.2-5.4-3.8-5.4c-1.8,0-3.2,1.3-3.7,2.9
	c-0.1,0.4-0.2,1-0.2,1.6v10.8h-3.1v-10.4c0-2.8-1.2-4.8-3.6-4.8c-2,0-3.4,1.6-3.9,3.2c-0.2,0.5-0.2,1-0.2,1.6v10.5h-3.1L128.3-75.2
	L128.3-75.2z"/>
<g>
	<path class="st5" d="M156.3-62.7v-17.4h3.2v17.4H156.3z"/>
	<circle class="st7" cx="157.9" cy="-85.9" r="3.3"/>
</g>
<path class="st5" d="M127.2,51c0,6.4-4.5,9.2-8.7,9.2c-4.7,0-8.3-3.5-8.3-9c0-5.8,3.8-9.2,8.6-9.2C123.8,42,127.2,45.7,127.2,51z
	 M113.3,51.2c0,3.8,2.2,6.7,5.3,6.7c3,0,5.3-2.8,5.3-6.8c0-3-1.5-6.7-5.2-6.7C115,44.4,113.3,47.8,113.3,51.2z"/>
<path class="st5" d="M147.4,50.6c0,6.4-4.5,9.2-8.7,9.2c-4.7,0-8.4-3.5-8.4-9c0-5.8,3.8-9.2,8.6-9.2C144,41.6,147.4,45.3,147.4,50.6
	z M133.5,50.8c0,3.8,2.2,6.7,5.3,6.7c3,0,5.3-2.8,5.3-6.8c0-3-1.5-6.7-5.2-6.7C135.2,44,133.5,47.5,133.5,50.8z"/>
<path d="M194,65.6c0,2.8-1.9,4-3.7,4c-2,0-3.6-1.5-3.6-3.8c0-2.5,1.6-4,3.7-4C192.6,61.7,194,63.3,194,65.6z M188.1,65.6
	c0,1.6,0.9,2.9,2.3,2.9c1.3,0,2.3-1.2,2.3-2.9c0-1.3-0.6-2.9-2.2-2.9C188.8,62.7,188.1,64.2,188.1,65.6z"/>
<path d="M183.1,61.3h-3.4l-1.8-1h11.6l-1.4,1h-3.4v8.3h-1.5V61.3z"/>
<path d="M201.3,67.2c0,0.8,0,1.4,0.1,2h-1.2l-0.1-1.2h0c-0.4,0.6-1.1,1.4-2.5,1.4c-1.2,0-2.6-0.7-2.6-3.3v-4.4h1.4v4.1
	c0,1.4,0.4,2.4,1.7,2.4c0.9,0,1.6-0.6,1.8-1.2c0.1-0.2,0.1-0.4,0.1-0.7v-4.6h1.4L201.3,67.2L201.3,67.2z"/>
<path d="M203.7,64.3c0-0.9,0-1.6-0.1-2.3h1.2l0.1,1.5h0.1c0.3-1,1.2-1.6,2.1-1.6c0.1,0,0.3,0,0.4,0v1.3c-0.1,0-0.3,0-0.5,0
	c-1,0-1.6,0.7-1.8,1.7c0,0.2-0.1,0.4-0.1,0.6v4h-1.4V64.3z"/>
<path d="M208.6,67.9c0.4,0.3,1.1,0.5,1.8,0.5c1,0,1.4-0.5,1.4-1.1c0-0.7-0.4-1-1.4-1.4c-1.4-0.5-2-1.2-2-2.1c0-1.2,1-2.2,2.6-2.2
	c0.8,0,2.7-0.6,3.1-0.4l-1.6,1.8c-0.3-0.2-0.8-0.4-1.5-0.4c-0.8,0-1.2,0.5-1.2,1c0,0.6,0.4,0.9,1.4,1.3c1.3,0.5,2,1.2,2,2.3
	c0,1.3-1,2.2-2.8,2.2c-0.8,0-1.6-0.2-2.1-0.5L208.6,67.9z"/>
<path class="st5" d="M150.1,46.7c0-1.8,0-3.3-0.1-4.7h2.8l0.1,2.8h0.1c1-1.7,2.6-3.2,5.5-3.2c2.4,0,4.2,1.4,4.9,3.5h0.1
	c0.5-1,1.2-1.7,1.9-2.3c1-0.8,2.2-1.2,3.9-1.2c2.3,0,5.7,1.5,5.7,7.6v10.3h-3.1v-9.9c0-3.3-1.2-5.4-3.8-5.4c-1.8,0-3.2,1.3-3.7,2.9
	c-0.1,0.4-0.2,1-0.2,1.6v10.8H161V49c0-2.8-1.2-4.8-3.6-4.8c-2,0-3.4,1.6-3.9,3.2c-0.2,0.5-0.2,1-0.2,1.5v10.5h-3.1L150.1,46.7
	L150.1,46.7z"/>
<g>
	<path class="st5" d="M178.2,59.2V41.7h3.2v17.4C181.3,59.2,178.2,59.2,178.2,59.2z"/>
	<circle class="st7" cx="179.8" cy="36" r="3.3"/>
</g>
<path class="st8" d="M41,17.1C41,9,46.3,2.4,52.8,2.4S64.6,9,64.6,17.1"/>
<g>
	
		<linearGradient id="SVGID_00000155850637472925626520000013457441497477371300_" gradientUnits="userSpaceOnUse" x1="18.3232" y1="21.8884" x2="18.3451" y2="21.8884">
		<stop  offset="2.131116e-07" style="stop-color:#00AEEF"/>
		<stop  offset="1" style="stop-color:#27AAE1"/>
	</linearGradient>
	<polygon style="fill:url(#SVGID_00000155850637472925626520000013457441497477371300_);" points="18.3,21.9 18.3,21.9 18.3,21.9 	
		"/>
	
		<linearGradient id="SVGID_00000058566825410542298380000008618378175567690385_" gradientUnits="userSpaceOnUse" x1="18.3451" y1="21.8766" x2="18.35" y2="21.8766">
		<stop  offset="2.131116e-07" style="stop-color:#00AEEF"/>
		<stop  offset="1" style="stop-color:#27AAE1"/>
	</linearGradient>
	<polygon style="fill:url(#SVGID_00000058566825410542298380000008618378175567690385_);" points="18.3,21.9 18.3,21.9 18.3,21.9 	
		"/>
	
		<linearGradient id="SVGID_00000060001115615575356610000009148430951574646164_" gradientUnits="userSpaceOnUse" x1="18.35" y1="22.54" x2="76.8" y2="22.54">
		<stop  offset="2.131116e-07" style="stop-color:#00AEEF"/>
		<stop  offset="1" style="stop-color:#27AAE1"/>
	</linearGradient>
	<path style="fill:url(#SVGID_00000060001115615575356610000009148430951574646164_);" d="M71.2,32.5l-9.1-0.2l-8-12.7
		c0,0-0.2-4.9-6.7-5.6l-8-10.4L26.3,21c-4.2,5.6-7.8,1.2-8,0.9v1.3c2.5,0.9,5.4,1.5,7.6,2.9l2.1-2.6l-1.4,3.1c0.4,0.3,0.7,0.6,1,1
		l5-5.7L31,34.8l8.4-20.7v11.1l2.7-7.1l4.2,7.3c0.4-6.2,0.4-6.2,0.4-6.2l19.4,20.7v-3.1l3.1,0.7l2.4,4h5.1L71.2,32.5z"/>
	
		<linearGradient id="SVGID_00000158738690072788358070000009299262383613660561_" gradientUnits="userSpaceOnUse" x1="52.49" y1="22.3156" x2="94.9935" y2="22.3156">
		<stop  offset="2.131116e-07" style="stop-color:#00AEEF"/>
		<stop  offset="1" style="stop-color:#27AAE1"/>
	</linearGradient>
	<path style="fill:url(#SVGID_00000158738690072788358070000009299262383613660561_);" d="M83.1,21.7c-0.7,2.4-6.2,1.2-6.2,1.2
		L64.1,5.6c-6,14.2-11.7,11.3-11.7,11.3l2.2,4.5c5.4,0.8,7.3-3.6,7.3-3.6l1.9,8.3l0.7-12c1,1.4,7.6,15.9,7.6,15.9s0,0-0.6-8.5
		c-0.1-1.9,12.7,14.4,12.7,14.4l-0.7-8.8l10.7,11.6c0.1,0.1,0.2,0.2,0.4,0.3c0.3-0.8,0.3-1.6,0.3-2.5L83.1,21.7z"/>
</g>
<path class="st8" d="M20.8,59"/>
<path class="st13" d="M-176.1,119.7c0,0-8.7,2.2-14.3-5.3c0,0-1.6-4.6,7.9-8.9c0,0,13.9-4.9,30.2-3.4c0,0,30.4,0.7,36.7,2.1
	c0,0,25.1,3.4,26.6-3.8c0,0,0.9-0.8,1.8,0c0,0,3.7,1,3.4,6.3c0,0-10.8,7.7-27.3,4.1c0,0-30.8-3.3-34.9-2.7c0,0-8-0.2-6.3,7.4
	c0,0,3.8,3.6,8.6,2.9c0,0-5.9,2.2-17.9,0.9c0,0-6.9-3.9-2.6-8.8c0,0,3.3-4.1,11.1-5.2c0,0-10.1-1.6-15.8,0.4c0,0-6.8,1.8-10,6.6
	c0,0-1.2,5.4,2.9,6.7S-176.1,119.7-176.1,119.7z"/>
<path class="st5" d="M2.8,20.9c3-0.5,6.7-0.8,10.6-0.8c7.2,0,12.3,1.7,15.7,4.8c3.4,3.2,5.4,7.6,5.4,13.9c0,6.3-2,11.5-5.6,15
	c-3.6,3.6-9.6,5.6-17.1,5.6c-3.6,0-6.6-0.2-9.1-0.5v-34L2.8,20.9L2.8,20.9z M7.8,55.1c1.3,0.2,3.1,0.3,5,0.3
	c10.7,0,16.5-6,16.5-16.4C29.4,29.8,24.2,24,13.6,24c-2.6,0-4.5,0.2-5.9,0.5C7.8,24.5,7.8,55.1,7.8,55.1z"/>
<path class="st5" d="M39.4,52.5c1.3,4.1,4.5,4.9,7.5,4c2.2-0.7,3.3-1.5,4.3-2.3l1.2,2c-0.9,0.8-2.6,1.9-5.2,2.8
	c-5.1,1.6-9.2-0.8-10.8-5.8s0.2-9.9,5-11.4c5.4-1.7,8.4,2.6,9.3,5.7c0.2,0.6,0.3,1.1,0.3,1.4L39.4,52.5z M47.6,47.6
	C47,45.7,45.3,43,41.9,44c-3.1,1-3.5,4.2-3.1,6.4L47.6,47.6z"/>
<path class="st5" d="M92.1,34.1h3.2V45h0.1c0.5-0.9,1.3-1.7,2.3-2.2c0.9-0.5,2.1-0.9,3.2-0.9c2.3,0,6.1,1.4,6.1,7.5v10.4h-3.2v-10
	c0-2.8-1-5.2-4-5.2c-2.1,0-3.7,1.4-4.2,3.2c-0.2,0.4-0.2,0.9-0.2,1.5v10.5h-3.2L92.1,34.1L92.1,34.1z"/>
<path class="st5" d="M73.4,59.5c0.1-1.2,0.1-3,0.1-4.5V33.9h3.1v10.9h0.1c1.1-1.9,3.1-3.2,5.9-3.2c4.3,0,7.4,3.6,7.3,8.9
	c0,6.2-3.9,9.3-7.8,9.3c-2.5,0-4.5-1-5.8-3.3h-0.1l-0.1,2.9L73.4,59.5L73.4,59.5z M76.7,52.5c0,0.4,0.1,0.8,0.1,1.2
	c0.6,2.2,2.4,3.7,4.8,3.7c3.3,0,5.3-2.7,5.3-6.7c0-3.5-1.8-6.5-5.2-6.5c-2.2,0-4.2,1.5-4.8,3.9c-0.1,0.4-0.2,0.8-0.2,1.3V52.5z"/>
<g>
	<path d="M222.1,71.5c0.1-0.1,0.1-0.1,0.1-0.1c0.9-1.7,3.3-1.7,4.1,0.1c0.1,0.1,0.4,0.2,0.5,0.2c1,0,2.1,0,3.1,0
		c0.3,0,0.5-0.1,0.6-0.4c0.9-1.5,2.9-1.6,3.8-0.2c0.2,0.3,0.4,0.3,0.7,0.2c2-1.1,2.9-2.9,2.9-5c0.1-4.5,0-9,0-13.5
		c0-0.6-0.1-1.2-0.2-1.8c-0.5-1.9-2.1-3.9-5-3.8c-3.1,0.1-6.2,0-9.4,0c-1.4,0-2.5,0.5-3.4,1.6c-0.9,1.1-1.4,2.4-1.4,3.9
		c0,4.5,0,8.9,0,13.4c0,0.8,0.2,1.7,0.4,2.5C219.7,70,220.6,71,222.1,71.5z M228.3,42.1c0.4,0,0.7,0,1,0c0.4,0,0.7,0,1.1,0
		c0.9,0,1.3,0.4,1.3,1.3c0,0.7,0,1.4,0,2.1c0,1.5-0.3,1.2,1.4,1.3c0.4,0,0.5-0.2,0.5-0.5c0-1,0-2,0-3c0-1.5-0.9-2.7-2.4-2.8
		c-1.8-0.1-3.6-0.1-5.4,0c-1.6,0.1-2.6,1.3-2.6,2.9c0,0.7,0,1.5,0,2.2c0,1.4-0.2,1.2,1.2,1.2c0.4,0,0.5-0.1,0.5-0.5c0-1,0-2,0-3
		c0-0.9,0.4-1.3,1.3-1.3C226.9,42.1,227.6,42.1,228.3,42.1z M222.5,72.4c0,1,0.7,1.8,1.8,1.8c1.1,0,1.8-0.8,1.8-1.8
		c0-1-0.8-1.8-1.8-1.8C223.2,70.6,222.5,71.3,222.5,72.4z M234.4,72.4c0-1.1-0.7-1.8-1.8-1.8c-1,0-1.8,0.8-1.8,1.8
		c0,1,0.8,1.8,1.8,1.8C233.6,74.2,234.4,73.4,234.4,72.4z"/>
	<path d="M222.1,71.5c-1.4-0.5-2.4-1.6-2.9-3c-0.3-0.8-0.4-1.7-0.4-2.5c0-4.5,0-8.9,0-13.4c0-1.5,0.4-2.8,1.4-3.9
		c0.9-1,2-1.6,3.4-1.6c3.1,0,6.2,0.1,9.4,0c2.9-0.1,4.4,1.9,5,3.8c0.2,0.6,0.2,1.2,0.2,1.8c0,4.5,0.1,9,0,13.5c0,2.2-0.9,4-2.9,5
		c-0.3,0.2-0.5,0.2-0.7-0.2c-1-1.4-3-1.3-3.8,0.2c-0.2,0.3-0.3,0.4-0.6,0.4c-1,0-2.1,0-3.1,0c-0.2,0-0.5-0.1-0.5-0.2
		c-0.8-1.8-3.2-1.8-4.1-0.1C222.2,71.4,222.2,71.4,222.1,71.5z"/>
	<path d="M228.3,42.1c-0.7,0-1.4,0-2.1,0c-0.9,0-1.3,0.4-1.3,1.3c0,1,0,2,0,3c0,0.4-0.1,0.5-0.5,0.5c-1.5,0-1.2,0.2-1.2-1.2
		c0-0.7,0-1.5,0-2.2c0-1.7,0.9-2.8,2.6-2.9c1.8-0.1,3.6-0.1,5.4,0c1.5,0.1,2.4,1.3,2.4,2.8c0,1,0,2,0,3c0,0.3-0.1,0.5-0.5,0.5
		c-1.7,0-1.3,0.2-1.4-1.3c0-0.7,0-1.4,0-2.1c0-0.9-0.4-1.3-1.3-1.3c-0.4,0-0.7,0-1.1,0C229,42.1,228.7,42.1,228.3,42.1z"/>
	<path d="M222.5,72.4c0-1.1,0.8-1.8,1.8-1.8c1,0,1.8,0.8,1.8,1.8c0,1-0.8,1.8-1.8,1.8C223.2,74.2,222.5,73.4,222.5,72.4z"/>
	<path d="M234.4,72.4c0,1.1-0.7,1.8-1.8,1.8c-1,0-1.8-0.8-1.8-1.8c0-1,0.8-1.8,1.8-1.8C233.6,70.6,234.4,71.3,234.4,72.4z"/>
</g>
<path d="M326.4-185.5v-10.6h2v10.6H326.4z M327.4-185.5v-1.9h2.6c0.7,0,1.2-0.2,1.5-0.5s0.5-0.8,0.5-1.3v-3.1c0-0.6-0.2-1-0.5-1.4
	s-0.9-0.5-1.5-0.5h-2.6v-1.9h2.5c1.3,0,2.4,0.3,3.1,1s1.1,1.6,1.1,2.8v3c0,0.8-0.2,1.4-0.5,2c-0.3,0.6-0.8,1-1.4,1.3
	c-0.6,0.3-1.4,0.5-2.3,0.5L327.4-185.5L327.4-185.5z"/>
<path d="M336-185.5v-10.6h2v10.6H336z M336.8-194.2v-1.9h6.4v1.9H336.8z M336.8-189.8v-1.9h5.6v1.9H336.8z M336.8-185.5v-1.9h6.4
	v1.9H336.8z"/>
<path d="M347.5-185.5l-3.5-10.6h2.1l2.3,7.1l2.3-7.1h2.1l-3.5,10.6H347.5z"/>
<path d="M353.9-185.5v-10.6h2v10.6H353.9z M354.8-185.5v-1.9h3.4c0.5,0,0.8-0.1,1.1-0.3c0.2-0.2,0.4-0.5,0.4-0.9v0
	c0-0.4-0.1-0.7-0.4-0.9s-0.6-0.3-1.1-0.3h-3.4v-1.9h3.4c0.4,0,0.7-0.1,1-0.3c0.2-0.2,0.3-0.5,0.3-0.9c0-0.4-0.1-0.6-0.3-0.8
	s-0.5-0.3-1-0.3h-3.4v-1.9h3.5c1,0,1.8,0.2,2.4,0.8s0.9,1.2,0.9,2.1c0,0.6-0.2,1.1-0.5,1.5c-0.4,0.4-0.9,0.7-1.5,0.8
	c0.7,0.1,1.3,0.4,1.6,0.8c0.4,0.4,0.6,1,0.6,1.7v0c0,0.9-0.3,1.6-0.9,2.1c-0.6,0.5-1.4,0.8-2.4,0.8L354.8-185.5L354.8-185.5z"/>
<path d="M363.6-185.5v-10.6h2v10.6H363.6z M364.5-189.8v-1.9h6.2v1.9H364.5z M369.4-185.5v-10.6h2v10.6H369.4z"/>
<path d="M377.4-185.4c-0.8,0-1.5-0.2-2-0.5c-0.6-0.3-1-0.8-1.4-1.4s-0.5-1.3-0.5-2.1v-3c0-0.8,0.2-1.5,0.5-2.1s0.8-1,1.4-1.4
	c0.6-0.3,1.3-0.5,2-0.5s1.5,0.2,2,0.5c0.6,0.3,1,0.8,1.4,1.4s0.5,1.3,0.5,2.1v3c0,0.8-0.2,1.5-0.5,2.1s-0.8,1.1-1.4,1.4
	C378.9-185.6,378.2-185.4,377.4-185.4z M377.4-187.4c0.5,0,1-0.2,1.3-0.5s0.5-0.8,0.5-1.4v-3.1c0-0.6-0.2-1-0.5-1.4
	c-0.3-0.3-0.8-0.5-1.3-0.5c-0.5,0-1,0.2-1.3,0.5c-0.3,0.3-0.5,0.8-0.5,1.4v3.1c0,0.6,0.2,1,0.5,1.4
	C376.4-187.6,376.9-187.4,377.4-187.4z"/>
<path d="M386.8-185.4c-0.8,0-1.5-0.2-2-0.5c-0.6-0.3-1-0.8-1.4-1.4s-0.5-1.3-0.5-2.1v-3c0-0.8,0.2-1.5,0.5-2.1s0.8-1,1.4-1.4
	c0.6-0.3,1.3-0.5,2-0.5s1.5,0.2,2,0.5c0.6,0.3,1,0.8,1.4,1.4s0.5,1.3,0.5,2.1v3c0,0.8-0.2,1.5-0.5,2.1s-0.8,1.1-1.4,1.4
	C388.3-185.6,387.6-185.4,386.8-185.4z M386.8-187.4c0.5,0,1-0.2,1.3-0.5s0.5-0.8,0.5-1.4v-3.1c0-0.6-0.2-1-0.5-1.4
	c-0.3-0.3-0.8-0.5-1.3-0.5c-0.5,0-1,0.2-1.3,0.5c-0.3,0.3-0.5,0.8-0.5,1.4v3.1c0,0.6,0.2,1,0.5,1.4
	C385.8-187.6,386.3-187.4,386.8-187.4z"/>
<path d="M397.4-189l2-7.2h2.6v10.6h-1.8v-8.3l0.1,0.5l-2,6.6h-1.8l-2-6.5l0.1-0.6v8.3h-1.8v-10.6h2.6L397.4-189z"/>
<path d="M406.3-196.2v10.6h-2.1v-10.6H406.3z"/>
<path d="M411.1-194.2v-1.9h7.8v1.9H411.1z M414-185.5v-9.8h2v9.8H414z"/>
<path d="M423.4-185.4c-0.8,0-1.5-0.2-2-0.5c-0.6-0.3-1-0.8-1.4-1.4s-0.5-1.3-0.5-2.1v-3c0-0.8,0.2-1.5,0.5-2.1s0.8-1,1.4-1.4
	c0.6-0.3,1.3-0.5,2-0.5s1.5,0.2,2,0.5c0.6,0.3,1,0.8,1.4,1.4s0.5,1.3,0.5,2.1v3c0,0.8-0.2,1.5-0.5,2.1s-0.8,1.1-1.4,1.4
	C424.9-185.6,424.2-185.4,423.4-185.4z M423.4-187.4c0.5,0,1-0.2,1.3-0.5s0.5-0.8,0.5-1.4v-3.1c0-0.6-0.2-1-0.5-1.4
	c-0.3-0.3-0.8-0.5-1.3-0.5c-0.5,0-1,0.2-1.3,0.5c-0.3,0.3-0.5,0.8-0.5,1.4v3.1c0,0.6,0.2,1,0.5,1.4
	C422.4-187.6,422.9-187.4,423.4-187.4z"/>
<path d="M432.9-185.4c-1.2,0-2.2-0.4-2.9-1c-0.7-0.7-1-1.7-1-2.9v-6.8h2v6.9c0,0.6,0.2,1.1,0.5,1.4s0.8,0.5,1.4,0.5
	c0.6,0,1.1-0.2,1.4-0.5s0.5-0.8,0.5-1.4v-6.9h2v6.8c0,1.3-0.3,2.2-1,2.9C435.1-185.7,434.1-185.4,432.9-185.4z"/>
<path d="M448.4-186.4v-10.7h2v10.7H448.4z M449.2-190.7v-1.9h3.7c0.3,0,0.6-0.1,0.8-0.3s0.3-0.5,0.3-0.9c0-0.4-0.1-0.7-0.3-0.9
	c-0.2-0.2-0.4-0.3-0.8-0.3h-3.7v-1.9h3.9c0.6,0,1.1,0.1,1.5,0.4c0.4,0.3,0.8,0.6,1,1.1c0.2,0.5,0.4,1,0.4,1.7s-0.1,1.2-0.4,1.7
	s-0.6,0.9-1,1.1s-1,0.4-1.5,0.4L449.2-190.7L449.2-190.7z M454-186.4l-2.6-4.6l2.1-0.3l2.9,4.9H454z"/>
<path d="M474.1-184.4c-0.5,0-1-0.1-1.5-0.1c-0.5-0.1-0.9-0.2-1.4-0.4c-0.4-0.2-0.8-0.4-1.1-0.7l0.9-1.7c0.4,0.3,0.9,0.6,1.4,0.8
	s1.1,0.3,1.7,0.3c0.6,0,1.2-0.1,1.5-0.3s0.5-0.5,0.5-0.9v0c0-0.3-0.1-0.5-0.3-0.7c-0.2-0.2-0.4-0.3-0.7-0.4c-0.3-0.1-0.6-0.1-1-0.2
	c-0.4-0.1-0.8-0.1-1.3-0.2c-0.4-0.1-0.8-0.2-1.2-0.4c-0.4-0.2-0.6-0.5-0.9-0.9c-0.2-0.4-0.3-0.9-0.3-1.6v0c0-1,0.3-1.8,1-2.4
	c0.7-0.6,1.6-0.9,2.9-0.9c0.6,0,1.2,0.1,1.8,0.3s1.1,0.5,1.7,0.8l-0.9,1.7c-0.4-0.3-0.8-0.5-1.3-0.7c-0.5-0.1-0.9-0.2-1.3-0.2
	c-0.6,0-1.1,0.1-1.4,0.3s-0.5,0.5-0.5,0.9v0c0,0.3,0.1,0.6,0.3,0.8s0.5,0.3,0.8,0.4c0.3,0.1,0.7,0.2,1,0.2c0.4,0.1,0.8,0.2,1.2,0.3
	c0.4,0.1,0.8,0.3,1.1,0.5s0.6,0.5,0.8,0.9s0.3,0.9,0.3,1.5v0c0,1-0.4,1.8-1.1,2.4C476.4-184.7,475.4-184.4,474.1-184.4z"/>
</svg>
